<?xml version="1.0" ?><svg data-name="Layer 1" id="Layer_1" viewBox="0 0 100 100" xmlns="http://www.w3.org/2000/svg"><defs><style>.cls-1{fill-rule:evenodd;}</style></defs><path class="cls-1" d="M5.341,78.255a2.38,2.38,0,0,0,2.04,3.608h85.24a2.38,2.38,0,0,0,0-4.759H80.234L72.329,64.39a24.076,24.076,0,0,0-7.892-46.208,24.37,24.37,0,0,0-4.566.152,2.38,2.38,0,0,0-.387,4.639A11.9,11.9,0,1,1,44.294,36.4a2.379,2.379,0,0,0-4.649-.183,24.1,24.1,0,0,0-.7,4.334,8.071,8.071,0,0,0-5.063-1.886h-.027c-2.967.01-5.772,1.824-7.7,4.974L5.341,78.255ZM44.5,48.452c-.2-.662-.371-1.88-.5-2.557.27.28.551.553.838.818A16.724,16.724,0,0,0,55,50.994c.345.021.689.031,1.03.031A16.662,16.662,0,0,0,69.647,24.771c-.224-.317-.46-.628-.705-.929a19.32,19.32,0,0,1,.837,36.444L68.168,57.7c-1.941-3.124-4.749-4.914-7.709-4.914h-.028c-2.973.013-5.778,1.829-7.7,4.979l-1.173,1.918L44.5,48.452ZM64.126,60.214l10.5,16.89H46.5L56.794,60.242c1.042-1.707,2.374-2.69,3.654-2.695s2.624.967,3.678,2.667ZM11.587,77.1,30.23,46.109c1.035-1.7,2.365-2.675,3.642-2.68h.011c1.272,0,2.607.972,3.657,2.667L48.779,64.23,40.911,77.1Z"/></svg>