<svg id="Capa_1" enable-background="new 0 0 512 512" height="512" viewBox="0 0 512 512" width="512" xmlns="http://www.w3.org/2000/svg"><g><g><g><g><g><path d="m460.387 27.5v49.354h-408.774v-49.354c0-11.046 8.954-20 20-20h368.775c11.045 0 19.999 8.954 19.999 20z" fill="#90d8f9"/></g></g></g><g><g><g><path d="m94.653 7.5h-23.04c-11.046 0-20 8.954-20 20v49.354h23.04v-49.354c0-11.046 8.954-20 20-20z" fill="#75cef9"/></g></g></g><g><path d="m440.387 504.5h-368.774c-11.046 0-20-8.954-20-20v-414.34h408.775v414.34c-.001 11.046-8.955 20-20.001 20z" fill="#e8edf2"/></g><g><path d="m74.653 484.5v-414.34h-23.04v414.34c0 11.046 8.954 20 20 20h23.04c-11.046 0-20-8.954-20-20z" fill="#c5d3dd"/></g><g><g><path d="m405.142 383.415h-298.284c-5.523 0-10-4.477-10-10v-248.695c0-5.523 4.477-10 10-10h298.284c5.523 0 10 4.477 10 10v248.695c0 5.523-4.477 10-10 10z" fill="#90d8f9"/></g></g><g><g><g><path d="m118.458 373.415v-248.695c0-5.523 4.477-10 10-10h-21.6c-5.523 0-10 4.477-10 10v248.695c0 5.523 4.477 10 10 10h21.6c-5.523 0-10-4.477-10-10z" fill="#75cef9"/></g></g></g><g><path d="m343.253 383.415h-165.12v-57.116c0-9.444 7.656-17.1 17.1-17.1h130.92c9.444 0 17.1 7.656 17.1 17.1z" fill="#b3e59f"/></g><g><path d="m212.423 309.199h-17.19c-9.444 0-17.1 7.656-17.1 17.1v57.116h17.19v-57.116c0-9.444 7.656-17.1 17.1-17.1z" fill="#95d6a4"/></g><g><path d="m221.061 193.519v51.978c0 9.68 4.045 18.92 11.158 25.486l.432.399c3.802 3.509 8.307 6.084 13.162 7.605v6.815c0 7.643-3.215 14.934-8.858 20.089l-3.622 3.309 20.491 15.998c4.037 3.151 9.7 3.151 13.737 0l20.492-15.998-3.622-3.309c-5.643-5.155-8.858-12.446-8.858-20.089v-6.815c4.855-1.521 9.361-4.095 13.162-7.605l.432-.399c7.113-6.566 11.158-15.806 11.158-25.486v-51.978l-30.092-18.779z" fill="#ffb8a9"/></g><g><path d="m248.512 309.199 3.622-3.309c5.643-5.155 8.858-12.446 8.858-20.089v-6.815c-4.855-1.521-9.361-4.095-13.162-7.605l-.432-.399c-7.113-6.566-11.158-15.806-11.158-25.486v-51.978l39.756-15.183-5.763-3.596-49.172 18.779v51.978c0 9.68 4.045 18.92 11.158 25.486l.432.399c3.802 3.509 8.307 6.084 13.162 7.605v6.815c0 7.643-3.215 14.934-8.858 20.089l-3.622 3.309 20.491 15.998c4.037 3.151 9.7 3.151 13.737 0l.721-.563z" fill="#ff947e"/></g><g><path d="m233.493 214.039c14.845 0 26.88-12.035 26.88-26.88v-3.84 6.96c0 13.122 10.638 23.76 23.76 23.76h3.6 27.54c2.761 0 5-2.239 5-5v-14.07c0-23.666-19.185-42.85-42.85-42.85h-33.459c-23.666 0-42.85 19.185-42.85 42.85v14.07c0 2.761 2.239 5 5 5z" fill="#4a80aa"/></g><g><path d="m219.113 209.039v-14.07c0-23.666 19.185-42.85 42.85-42.85h-18c-23.666 0-42.85 19.185-42.85 42.85v14.07c0 2.761 2.239 5 5 5h18c-2.762 0-5-2.238-5-5z" fill="#407093"/></g></g><g><path d="m97.538 32.677h-7.68c-4.142 0-7.5 3.357-7.5 7.5s3.358 7.5 7.5 7.5h7.68c4.142 0 7.5-3.357 7.5-7.5s-3.358-7.5-7.5-7.5z"/><path d="m134.981 32.677h-7.68c-4.142 0-7.5 3.357-7.5 7.5s3.358 7.5 7.5 7.5h7.68c4.142 0 7.5-3.357 7.5-7.5s-3.358-7.5-7.5-7.5z"/><path d="m172.424 32.677h-7.68c-4.142 0-7.5 3.357-7.5 7.5s3.358 7.5 7.5 7.5h7.68c4.142 0 7.5-3.357 7.5-7.5s-3.358-7.5-7.5-7.5z"/><path d="m415.142 168.69c4.142 0 7.5-3.357 7.5-7.5v-36.47c0-9.649-7.851-17.5-17.5-17.5h-298.284c-9.649 0-17.5 7.851-17.5 17.5v248.695c0 9.649 7.851 17.5 17.5 17.5h298.284c9.649 0 17.5-7.851 17.5-17.5v-166.677c0-4.143-3.358-7.5-7.5-7.5s-7.5 3.357-7.5 7.5v166.677c0 1.379-1.122 2.5-2.5 2.5h-54.39v-49.616c0-13.564-11.036-24.6-24.6-24.6h-35.19l-1.474-1.347c-4.077-3.724-6.416-9.027-6.416-14.551v-1.693c3.894-1.822 7.523-4.238 10.749-7.216l.432-.398c8.625-7.961 13.571-19.259 13.571-30.996v-23.959h7.448c6.893 0 12.5-5.607 12.5-12.5v-14.069c0-27.764-22.587-50.351-50.35-50.351h-33.459c-27.763 0-50.35 22.587-50.35 50.351v14.069c0 6.893 5.607 12.5 12.5 12.5h7.448v23.959c0 11.737 4.946 23.035 13.571 30.996l.431.398c3.226 2.978 6.856 5.394 10.749 7.216v1.693c0 5.523-2.338 10.827-6.416 14.552l-1.473 1.346h-35.191c-13.564 0-24.6 11.035-24.6 24.6v49.616h-63.775c-1.378 0-2.5-1.121-2.5-2.5v-248.695c0-1.379 1.122-2.5 2.5-2.5h298.284c1.378 0 2.5 1.121 2.5 2.5v36.471c.001 4.142 3.359 7.499 7.501 7.499zm-206.529 26.28c0-19.492 15.858-35.351 35.35-35.351h33.459c19.492 0 35.35 15.858 35.35 35.351v11.569h-28.64c-8.966 0-16.26-7.294-16.26-16.26v-6.96c0-4.143-3.358-7.5-7.5-7.5s-7.5 3.357-7.5 7.5v3.84c0 10.687-8.694 19.38-19.38 19.38h-24.88v-11.569zm28.693 70.503c-5.558-5.131-8.745-12.411-8.745-19.975v-23.959h4.932c10.405 0 19.745-4.646 26.055-11.973 5.728 7.285 14.62 11.973 24.585 11.973h8.692v23.959c0 7.563-3.188 14.844-8.745 19.975l-.432.398c-5.037 4.65-11.586 7.211-18.44 7.211h-9.029c-6.854 0-13.403-2.561-18.44-7.211zm18.872 22.609h9.029c.986 0 1.966-.046 2.942-.113.48 7.626 3.472 14.9 8.471 20.641l-13.674 10.676c-1.327 1.036-3.18 1.038-4.506 0l-13.674-10.676c4.999-5.741 7.99-13.016 8.471-20.641.975.068 1.955.113 2.941.113zm-70.545 38.217c0-5.293 4.306-9.6 9.6-9.6h35.519l18.458 14.41c3.381 2.639 7.432 3.959 11.483 3.959 4.052 0 8.103-1.32 11.484-3.959l18.458-14.41h35.518c5.293 0 9.6 4.307 9.6 9.6v49.616h-27.928v-23.46c0-4.143-3.358-7.5-7.5-7.5s-7.5 3.357-7.5 7.5v23.46h-64.264v-23.46c0-4.143-3.358-7.5-7.5-7.5s-7.5 3.357-7.5 7.5v23.46h-27.928z"/><path d="m440.387 0h-368.774c-15.164 0-27.5 12.337-27.5 27.5v209.551c0 4.143 3.358 7.5 7.5 7.5s7.5-3.357 7.5-7.5v-159.391h393.774v406.84c0 6.893-5.607 12.5-12.5 12.5h-368.774c-6.893 0-12.5-5.607-12.5-12.5v-212.3c0-4.143-3.358-7.5-7.5-7.5s-7.5 3.357-7.5 7.5v212.3c0 15.164 12.336 27.5 27.5 27.5h368.774c15.164 0 27.5-12.336 27.5-27.5v-457c0-15.163-12.336-27.5-27.5-27.5zm-381.274 62.66v-35.16c0-6.893 5.607-12.5 12.5-12.5h368.774c6.893 0 12.5 5.607 12.5 12.5v35.16z"/><path d="m153.76 418.156c-4.142 0-7.5 3.357-7.5 7.5s3.358 7.5 7.5 7.5h261.382c4.142 0 7.5-3.357 7.5-7.5s-3.358-7.5-7.5-7.5z"/><path d="m96.858 433.156h21.262c4.142 0 7.5-3.357 7.5-7.5s-3.358-7.5-7.5-7.5h-21.262c-4.142 0-7.5 3.357-7.5 7.5s3.358 7.5 7.5 7.5z"/><path d="m96.858 471.398h318.284c4.142 0 7.5-3.357 7.5-7.5s-3.358-7.5-7.5-7.5h-318.284c-4.142 0-7.5 3.357-7.5 7.5s3.358 7.5 7.5 7.5z"/></g></g></svg>